<mxfile host="Electron" modified="2024-03-03T14:53:06.348Z" agent="Mozilla/5.0 (Windows NT 10.0; Win64; x64) AppleWebKit/537.36 (KHTML, like Gecko) draw.io/23.1.5 Chrome/120.0.6099.109 Electron/28.1.0 Safari/537.36" etag="qaU0zYdd0eCQhY_b13b8" version="23.1.5" type="device">
  <diagram name="Page-1" id="BPGRHa3jcGcGUa02XELq">
    <mxGraphModel dx="2524" dy="-1364" grid="1" gridSize="10" guides="1" tooltips="1" connect="1" arrows="1" fold="1" page="1" pageScale="1" pageWidth="850" pageHeight="1100" math="0" shadow="0">
      <root>
        <mxCell id="0" />
        <mxCell id="1" parent="0" />
        <mxCell id="WIEkOgIy_zAYeg8RzgUL-1" value=":AccountService" style="rounded=0;whiteSpace=wrap;html=1;" parent="1" vertex="1">
          <mxGeometry x="520" y="2220" width="120" height="50" as="geometry" />
        </mxCell>
        <mxCell id="WIEkOgIy_zAYeg8RzgUL-2" value=":AccountRepository" style="rounded=0;whiteSpace=wrap;html=1;" parent="1" vertex="1">
          <mxGeometry x="720" y="2225" width="120" height="50" as="geometry" />
        </mxCell>
        <mxCell id="WIEkOgIy_zAYeg8RzgUL-3" value="DataBase" style="rounded=0;whiteSpace=wrap;html=1;" parent="1" vertex="1">
          <mxGeometry x="890" y="2230" width="120" height="50" as="geometry" />
        </mxCell>
        <mxCell id="WIEkOgIy_zAYeg8RzgUL-4" value="" style="endArrow=none;dashed=1;html=1;rounded=0;" parent="1" edge="1">
          <mxGeometry width="50" height="50" relative="1" as="geometry">
            <mxPoint x="35" y="2720" as="sourcePoint" />
            <mxPoint x="34.76" y="2300" as="targetPoint" />
          </mxGeometry>
        </mxCell>
        <mxCell id="WIEkOgIy_zAYeg8RzgUL-5" value="" style="endArrow=none;dashed=1;html=1;rounded=0;entryX=0.5;entryY=1;entryDx=0;entryDy=0;exitX=0.5;exitY=0;exitDx=0;exitDy=0;" parent="1" source="WIEkOgIy_zAYeg8RzgUL-6" edge="1">
          <mxGeometry width="50" height="50" relative="1" as="geometry">
            <mxPoint x="160" y="2310" as="sourcePoint" />
            <mxPoint x="230" y="2270" as="targetPoint" />
          </mxGeometry>
        </mxCell>
        <mxCell id="WIEkOgIy_zAYeg8RzgUL-6" value="" style="rounded=0;whiteSpace=wrap;html=1;" parent="1" vertex="1">
          <mxGeometry x="220" y="2308" width="20" height="382" as="geometry" />
        </mxCell>
        <mxCell id="WIEkOgIy_zAYeg8RzgUL-7" value="" style="rounded=0;whiteSpace=wrap;html=1;" parent="1" vertex="1">
          <mxGeometry x="395" y="2338" width="20" height="280" as="geometry" />
        </mxCell>
        <mxCell id="WIEkOgIy_zAYeg8RzgUL-8" value="" style="rounded=0;whiteSpace=wrap;html=1;" parent="1" vertex="1">
          <mxGeometry x="570" y="2358" width="20" height="240" as="geometry" />
        </mxCell>
        <mxCell id="WIEkOgIy_zAYeg8RzgUL-9" value="" style="rounded=0;whiteSpace=wrap;html=1;" parent="1" vertex="1">
          <mxGeometry x="770" y="2475" width="20" height="130" as="geometry" />
        </mxCell>
        <mxCell id="WIEkOgIy_zAYeg8RzgUL-10" value="" style="rounded=0;whiteSpace=wrap;html=1;" parent="1" vertex="1">
          <mxGeometry x="940" y="2508" width="20" height="90" as="geometry" />
        </mxCell>
        <mxCell id="WIEkOgIy_zAYeg8RzgUL-11" value="" style="endArrow=classic;html=1;rounded=0;entryX=0.083;entryY=0.075;entryDx=0;entryDy=0;entryPerimeter=0;" parent="1" target="WIEkOgIy_zAYeg8RzgUL-6" edge="1">
          <mxGeometry width="50" height="50" relative="1" as="geometry">
            <mxPoint x="40" y="2336" as="sourcePoint" />
            <mxPoint x="320" y="2340" as="targetPoint" />
          </mxGeometry>
        </mxCell>
        <mxCell id="WIEkOgIy_zAYeg8RzgUL-12" value="1.Change Info User" style="text;html=1;align=center;verticalAlign=middle;resizable=0;points=[];autosize=1;strokeColor=none;fillColor=none;" parent="1" vertex="1">
          <mxGeometry x="60" y="2308" width="130" height="30" as="geometry" />
        </mxCell>
        <mxCell id="WIEkOgIy_zAYeg8RzgUL-13" value="" style="endArrow=classic;html=1;rounded=0;entryX=0.083;entryY=0.075;entryDx=0;entryDy=0;entryPerimeter=0;" parent="1" edge="1">
          <mxGeometry width="50" height="50" relative="1" as="geometry">
            <mxPoint x="38" y="2372" as="sourcePoint" />
            <mxPoint x="220" y="2370" as="targetPoint" />
          </mxGeometry>
        </mxCell>
        <mxCell id="WIEkOgIy_zAYeg8RzgUL-14" value="2.Click Button Save Change" style="text;html=1;align=center;verticalAlign=middle;resizable=0;points=[];autosize=1;strokeColor=none;fillColor=none;" parent="1" vertex="1">
          <mxGeometry x="41" y="2338" width="170" height="30" as="geometry" />
        </mxCell>
        <mxCell id="WIEkOgIy_zAYeg8RzgUL-15" value="" style="endArrow=none;dashed=1;html=1;rounded=0;exitX=0.5;exitY=0;exitDx=0;exitDy=0;entryX=0.5;entryY=1;entryDx=0;entryDy=0;" parent="1" source="WIEkOgIy_zAYeg8RzgUL-7" edge="1" target="WIEkOgIy_zAYeg8RzgUL-47">
          <mxGeometry width="50" height="50" relative="1" as="geometry">
            <mxPoint x="400" y="2338" as="sourcePoint" />
            <mxPoint x="405" y="2273" as="targetPoint" />
            <Array as="points">
              <mxPoint x="405" y="2310" />
            </Array>
          </mxGeometry>
        </mxCell>
        <mxCell id="WIEkOgIy_zAYeg8RzgUL-16" value="" style="endArrow=none;dashed=1;html=1;rounded=0;exitX=0.5;exitY=0;exitDx=0;exitDy=0;entryX=0.5;entryY=1;entryDx=0;entryDy=0;" parent="1" source="WIEkOgIy_zAYeg8RzgUL-8" target="WIEkOgIy_zAYeg8RzgUL-1" edge="1">
          <mxGeometry width="50" height="50" relative="1" as="geometry">
            <mxPoint x="579.67" y="2350" as="sourcePoint" />
            <mxPoint x="579.67" y="2285" as="targetPoint" />
            <Array as="points">
              <mxPoint x="579.67" y="2322" />
            </Array>
          </mxGeometry>
        </mxCell>
        <mxCell id="WIEkOgIy_zAYeg8RzgUL-17" value="" style="endArrow=none;dashed=1;html=1;rounded=0;exitX=0.5;exitY=0;exitDx=0;exitDy=0;entryX=0.5;entryY=1;entryDx=0;entryDy=0;" parent="1" edge="1" target="WIEkOgIy_zAYeg8RzgUL-2">
          <mxGeometry width="50" height="50" relative="1" as="geometry">
            <mxPoint x="780.17" y="2440" as="sourcePoint" />
            <mxPoint x="780" y="2285" as="targetPoint" />
            <Array as="points" />
          </mxGeometry>
        </mxCell>
        <mxCell id="WIEkOgIy_zAYeg8RzgUL-18" value="" style="endArrow=none;dashed=1;html=1;rounded=0;exitX=0.5;exitY=0;exitDx=0;exitDy=0;entryX=0.5;entryY=1;entryDx=0;entryDy=0;" parent="1" source="WIEkOgIy_zAYeg8RzgUL-10" target="WIEkOgIy_zAYeg8RzgUL-3" edge="1">
          <mxGeometry width="50" height="50" relative="1" as="geometry">
            <mxPoint x="980" y="2455" as="sourcePoint" />
            <mxPoint x="980" y="2300" as="targetPoint" />
            <Array as="points" />
          </mxGeometry>
        </mxCell>
        <mxCell id="WIEkOgIy_zAYeg8RzgUL-19" value="3. editAccount(account)" style="text;html=1;align=center;verticalAlign=middle;resizable=0;points=[];autosize=1;strokeColor=none;fillColor=none;" parent="1" vertex="1">
          <mxGeometry x="240" y="2368" width="150" height="30" as="geometry" />
        </mxCell>
        <mxCell id="WIEkOgIy_zAYeg8RzgUL-20" value="" style="endArrow=none;dashed=1;html=1;rounded=0;entryX=0.5;entryY=1;entryDx=0;entryDy=0;exitX=0.5;exitY=0;exitDx=0;exitDy=0;" parent="1" edge="1">
          <mxGeometry width="50" height="50" relative="1" as="geometry">
            <mxPoint x="229.44" y="2728" as="sourcePoint" />
            <mxPoint x="229.44" y="2690" as="targetPoint" />
          </mxGeometry>
        </mxCell>
        <mxCell id="WIEkOgIy_zAYeg8RzgUL-21" value="[Invalid Info}" style="text;html=1;align=center;verticalAlign=middle;resizable=0;points=[];autosize=1;strokeColor=none;fillColor=none;" parent="1" vertex="1">
          <mxGeometry x="30" y="2475" width="90" height="30" as="geometry" />
        </mxCell>
        <mxCell id="WIEkOgIy_zAYeg8RzgUL-22" value="[Valid Info]" style="text;html=1;align=center;verticalAlign=middle;resizable=0;points=[];autosize=1;strokeColor=none;fillColor=none;" parent="1" vertex="1">
          <mxGeometry x="30" y="2530" width="80" height="30" as="geometry" />
        </mxCell>
        <mxCell id="WIEkOgIy_zAYeg8RzgUL-23" value="" style="endArrow=classic;html=1;rounded=0;exitX=0.964;exitY=0.243;exitDx=0;exitDy=0;entryX=0.01;entryY=0.223;entryDx=0;entryDy=0;entryPerimeter=0;exitPerimeter=0;" parent="1" source="WIEkOgIy_zAYeg8RzgUL-6" target="WIEkOgIy_zAYeg8RzgUL-7" edge="1">
          <mxGeometry width="50" height="50" relative="1" as="geometry">
            <mxPoint x="260" y="2450" as="sourcePoint" />
            <mxPoint x="310" y="2400" as="targetPoint" />
          </mxGeometry>
        </mxCell>
        <mxCell id="WIEkOgIy_zAYeg8RzgUL-24" value="all validate infor user" style="shape=umlFrame;whiteSpace=wrap;html=1;pointerEvents=0;width=190;height=30;" parent="1" vertex="1">
          <mxGeometry x="-30" y="2440" width="1060" height="200" as="geometry" />
        </mxCell>
        <mxCell id="WIEkOgIy_zAYeg8RzgUL-25" value="4 Return Invalid View" style="text;html=1;align=center;verticalAlign=middle;resizable=0;points=[];autosize=1;strokeColor=none;fillColor=none;" parent="1" vertex="1">
          <mxGeometry x="250" y="2470" width="140" height="30" as="geometry" />
        </mxCell>
        <mxCell id="WIEkOgIy_zAYeg8RzgUL-26" value="" style="endArrow=open;endSize=12;dashed=1;html=1;rounded=0;exitX=-0.167;exitY=0.571;exitDx=0;exitDy=0;exitPerimeter=0;entryX=1;entryY=0.5;entryDx=0;entryDy=0;" parent="1" source="WIEkOgIy_zAYeg8RzgUL-7" target="WIEkOgIy_zAYeg8RzgUL-6" edge="1">
          <mxGeometry width="160" relative="1" as="geometry">
            <mxPoint x="260" y="2574.58" as="sourcePoint" />
            <mxPoint x="420" y="2574.58" as="targetPoint" />
          </mxGeometry>
        </mxCell>
        <mxCell id="WIEkOgIy_zAYeg8RzgUL-27" value="" style="endArrow=classic;html=1;rounded=0;exitX=1.102;exitY=0.714;exitDx=0;exitDy=0;exitPerimeter=0;entryX=-0.05;entryY=0.437;entryDx=0;entryDy=0;entryPerimeter=0;" parent="1" edge="1">
          <mxGeometry width="50" height="50" relative="1" as="geometry">
            <mxPoint x="591.04" y="2535.5499999999997" as="sourcePoint" />
            <mxPoint x="768.0000000000005" y="2538.0000000000005" as="targetPoint" />
          </mxGeometry>
        </mxCell>
        <mxCell id="WIEkOgIy_zAYeg8RzgUL-28" value="6. editAccount(account)" style="text;html=1;align=center;verticalAlign=middle;resizable=0;points=[];autosize=1;strokeColor=none;fillColor=none;" parent="1" vertex="1">
          <mxGeometry x="608" y="2508" width="150" height="30" as="geometry" />
        </mxCell>
        <mxCell id="WIEkOgIy_zAYeg8RzgUL-29" value="" style="endArrow=classic;html=1;rounded=0;exitX=1.132;exitY=0.647;exitDx=0;exitDy=0;exitPerimeter=0;entryX=-0.035;entryY=0.574;entryDx=0;entryDy=0;entryPerimeter=0;" parent="1" source="WIEkOgIy_zAYeg8RzgUL-9" target="WIEkOgIy_zAYeg8RzgUL-10" edge="1">
          <mxGeometry width="50" height="50" relative="1" as="geometry">
            <mxPoint x="790" y="2557" as="sourcePoint" />
            <mxPoint x="940" y="2565" as="targetPoint" />
          </mxGeometry>
        </mxCell>
        <mxCell id="WIEkOgIy_zAYeg8RzgUL-30" value="7. ExecuteEdit()" style="text;html=1;align=center;verticalAlign=middle;resizable=0;points=[];autosize=1;strokeColor=none;fillColor=none;" parent="1" vertex="1">
          <mxGeometry x="800" y="2530" width="110" height="30" as="geometry" />
        </mxCell>
        <mxCell id="WIEkOgIy_zAYeg8RzgUL-31" value="" style="endArrow=open;endSize=12;dashed=1;html=1;rounded=0;exitX=0.026;exitY=0.891;exitDx=0;exitDy=0;exitPerimeter=0;entryX=0.98;entryY=0.87;entryDx=0;entryDy=0;entryPerimeter=0;" parent="1" source="WIEkOgIy_zAYeg8RzgUL-10" target="WIEkOgIy_zAYeg8RzgUL-9" edge="1">
          <mxGeometry width="160" relative="1" as="geometry">
            <mxPoint x="900" y="2598.0044444444447" as="sourcePoint" />
            <mxPoint x="820" y="2585.56" as="targetPoint" />
          </mxGeometry>
        </mxCell>
        <mxCell id="WIEkOgIy_zAYeg8RzgUL-32" value="8.Return result" style="text;html=1;align=center;verticalAlign=middle;resizable=0;points=[];autosize=1;strokeColor=none;fillColor=none;" parent="1" vertex="1">
          <mxGeometry x="815" y="2560" width="100" height="30" as="geometry" />
        </mxCell>
        <mxCell id="WIEkOgIy_zAYeg8RzgUL-33" value="" style="endArrow=open;endSize=12;dashed=1;html=1;rounded=0;exitX=-0.041;exitY=0.852;exitDx=0;exitDy=0;exitPerimeter=0;entryX=0.915;entryY=0.949;entryDx=0;entryDy=0;entryPerimeter=0;" parent="1" source="WIEkOgIy_zAYeg8RzgUL-9" target="WIEkOgIy_zAYeg8RzgUL-8" edge="1">
          <mxGeometry width="160" relative="1" as="geometry">
            <mxPoint x="585" y="2670" as="sourcePoint" />
            <mxPoint x="745" y="2670" as="targetPoint" />
          </mxGeometry>
        </mxCell>
        <mxCell id="WIEkOgIy_zAYeg8RzgUL-34" value="9. Return result" style="text;html=1;align=center;verticalAlign=middle;resizable=0;points=[];autosize=1;strokeColor=none;fillColor=none;" parent="1" vertex="1">
          <mxGeometry x="620" y="2560" width="110" height="30" as="geometry" />
        </mxCell>
        <mxCell id="WIEkOgIy_zAYeg8RzgUL-35" value="" style="endArrow=open;endSize=12;dashed=1;html=1;rounded=0;entryX=0.915;entryY=0.949;entryDx=0;entryDy=0;entryPerimeter=0;" parent="1" edge="1">
          <mxGeometry width="160" relative="1" as="geometry">
            <mxPoint x="570" y="2590" as="sourcePoint" />
            <mxPoint x="415" y="2590" as="targetPoint" />
          </mxGeometry>
        </mxCell>
        <mxCell id="WIEkOgIy_zAYeg8RzgUL-37" value="" style="endArrow=open;endSize=12;dashed=1;html=1;rounded=0;entryX=0.937;entryY=0.784;entryDx=0;entryDy=0;entryPerimeter=0;exitX=-0.03;exitY=0.965;exitDx=0;exitDy=0;exitPerimeter=0;" parent="1" source="WIEkOgIy_zAYeg8RzgUL-7" target="WIEkOgIy_zAYeg8RzgUL-6" edge="1">
          <mxGeometry width="160" relative="1" as="geometry">
            <mxPoint x="370" y="2610" as="sourcePoint" />
            <mxPoint x="254" y="2610" as="targetPoint" />
          </mxGeometry>
        </mxCell>
        <mxCell id="WIEkOgIy_zAYeg8RzgUL-39" value="" style="endArrow=open;endSize=12;dashed=1;html=1;rounded=0;exitX=0.024;exitY=0.971;exitDx=0;exitDy=0;exitPerimeter=0;" parent="1" source="WIEkOgIy_zAYeg8RzgUL-6" edge="1">
          <mxGeometry width="160" relative="1" as="geometry">
            <mxPoint x="40" y="2680" as="sourcePoint" />
            <mxPoint x="30" y="2680" as="targetPoint" />
          </mxGeometry>
        </mxCell>
        <mxCell id="WIEkOgIy_zAYeg8RzgUL-41" value="" style="endArrow=none;dashed=1;html=1;rounded=0;entryX=0.5;entryY=1;entryDx=0;entryDy=0;" parent="1" target="WIEkOgIy_zAYeg8RzgUL-7" edge="1">
          <mxGeometry width="50" height="50" relative="1" as="geometry">
            <mxPoint x="405" y="2730" as="sourcePoint" />
            <mxPoint x="430" y="2660" as="targetPoint" />
          </mxGeometry>
        </mxCell>
        <mxCell id="WIEkOgIy_zAYeg8RzgUL-42" value="" style="endArrow=none;dashed=1;html=1;rounded=0;entryX=0.5;entryY=1;entryDx=0;entryDy=0;" parent="1" target="WIEkOgIy_zAYeg8RzgUL-8" edge="1">
          <mxGeometry width="50" height="50" relative="1" as="geometry">
            <mxPoint x="580" y="2730" as="sourcePoint" />
            <mxPoint x="579.5699999999999" y="2650" as="targetPoint" />
          </mxGeometry>
        </mxCell>
        <mxCell id="WIEkOgIy_zAYeg8RzgUL-43" value="" style="endArrow=none;dashed=1;html=1;rounded=0;entryX=0.5;entryY=1;entryDx=0;entryDy=0;" parent="1" target="WIEkOgIy_zAYeg8RzgUL-9" edge="1">
          <mxGeometry width="50" height="50" relative="1" as="geometry">
            <mxPoint x="780" y="2730" as="sourcePoint" />
            <mxPoint x="779.13" y="2640" as="targetPoint" />
          </mxGeometry>
        </mxCell>
        <mxCell id="WIEkOgIy_zAYeg8RzgUL-44" value="" style="endArrow=none;dashed=1;html=1;rounded=0;entryX=0.5;entryY=1;entryDx=0;entryDy=0;" parent="1" target="WIEkOgIy_zAYeg8RzgUL-10" edge="1">
          <mxGeometry width="50" height="50" relative="1" as="geometry">
            <mxPoint x="949.58" y="2743" as="sourcePoint" />
            <mxPoint x="949.58" y="2618" as="targetPoint" />
          </mxGeometry>
        </mxCell>
        <mxCell id="WIEkOgIy_zAYeg8RzgUL-45" value="User" style="shape=umlActor;verticalLabelPosition=bottom;verticalAlign=top;html=1;outlineConnect=0;" parent="1" vertex="1">
          <mxGeometry x="20" y="2220" width="30" height="60" as="geometry" />
        </mxCell>
        <mxCell id="WIEkOgIy_zAYeg8RzgUL-46" value="View" style="rounded=0;whiteSpace=wrap;html=1;" parent="1" vertex="1">
          <mxGeometry x="185" y="2220" width="100" height="50" as="geometry" />
        </mxCell>
        <mxCell id="WIEkOgIy_zAYeg8RzgUL-47" value=":AccountController" style="rounded=0;whiteSpace=wrap;html=1;" parent="1" vertex="1">
          <mxGeometry x="342.5" y="2220" width="125" height="50" as="geometry" />
        </mxCell>
        <mxCell id="WIEkOgIy_zAYeg8RzgUL-49" value="" style="endArrow=classic;html=1;rounded=0;exitX=0.964;exitY=0.243;exitDx=0;exitDy=0;entryX=0.01;entryY=0.223;entryDx=0;entryDy=0;entryPerimeter=0;exitPerimeter=0;" parent="1" edge="1">
          <mxGeometry width="50" height="50" relative="1" as="geometry">
            <mxPoint x="414" y="2523.41" as="sourcePoint" />
            <mxPoint x="570" y="2522.41" as="targetPoint" />
          </mxGeometry>
        </mxCell>
        <mxCell id="jIZ4BMInxjjr_7auFiuj-1" value="Text" style="text;html=1;align=center;verticalAlign=middle;whiteSpace=wrap;rounded=0;" parent="1" vertex="1">
          <mxGeometry x="550" y="2390" width="60" height="30" as="geometry" />
        </mxCell>
        <mxCell id="jIZ4BMInxjjr_7auFiuj-2" value="(If Account Null Display message account not exits. else Follow the flow&amp;nbsp;" style="text;html=1;align=center;verticalAlign=middle;whiteSpace=wrap;rounded=0;" parent="1" vertex="1">
          <mxGeometry x="250" y="2328" width="140" height="30" as="geometry" />
        </mxCell>
        <mxCell id="j4RXEkgL76CRZcboB6q5-1" value="" style="endArrow=none;dashed=1;html=1;rounded=0;exitX=-0.003;exitY=0.332;exitDx=0;exitDy=0;exitPerimeter=0;entryX=1.004;entryY=0.336;entryDx=0;entryDy=0;entryPerimeter=0;" edge="1" parent="1" source="WIEkOgIy_zAYeg8RzgUL-24" target="WIEkOgIy_zAYeg8RzgUL-24">
          <mxGeometry width="50" height="50" relative="1" as="geometry">
            <mxPoint x="280" y="2570" as="sourcePoint" />
            <mxPoint x="330" y="2520" as="targetPoint" />
          </mxGeometry>
        </mxCell>
        <mxCell id="j4RXEkgL76CRZcboB6q5-2" value="5. editAccount(account)" style="text;html=1;align=center;verticalAlign=middle;resizable=0;points=[];autosize=1;strokeColor=none;fillColor=none;" vertex="1" parent="1">
          <mxGeometry x="420" y="2500" width="150" height="30" as="geometry" />
        </mxCell>
        <mxCell id="j4RXEkgL76CRZcboB6q5-3" value="10. Return result" style="text;html=1;align=center;verticalAlign=middle;resizable=0;points=[];autosize=1;strokeColor=none;fillColor=none;" vertex="1" parent="1">
          <mxGeometry x="445" y="2560" width="110" height="30" as="geometry" />
        </mxCell>
        <mxCell id="j4RXEkgL76CRZcboB6q5-4" value="11. Return Valid" style="text;html=1;align=center;verticalAlign=middle;resizable=0;points=[];autosize=1;strokeColor=none;fillColor=none;" vertex="1" parent="1">
          <mxGeometry x="270" y="2580" width="110" height="30" as="geometry" />
        </mxCell>
        <mxCell id="j4RXEkgL76CRZcboB6q5-5" value="12. Display update message" style="text;html=1;align=center;verticalAlign=middle;resizable=0;points=[];autosize=1;strokeColor=none;fillColor=none;" vertex="1" parent="1">
          <mxGeometry x="50" y="2650" width="170" height="30" as="geometry" />
        </mxCell>
      </root>
    </mxGraphModel>
  </diagram>
</mxfile>
